# xmcd CD database file
#
# Track frame offsets:
#	150
#	21252
#	62993
#	102858
#	146124
#	172605
#	190211
#	224087
#
# Disc length: 3952 seconds
#
# Revision: 0
# Processed by: cddbd v1.5.1PL2 Copyright (c) Steve Scherf et al.
# Submitted via: CDex 1.51
#
DISCID=750f6e08
DTITLE=Lars Kuklinski - Hot Blowing And The Strings Of Harmony
DYEAR=2000
DGENRE=Jazz
TTITLE0=Harlem Hangover
TTITLE1=Even Flow
TTITLE2=Zeitbeben, part 1
TTITLE3=Zeitbeben, part 2
TTITLE4=Welcome to Spackenhagen
TTITLE5=Melancholia
TTITLE6=Follw Me and I will Set You Free
TTITLE7=Hot Blowing and the String of Harmony
EXTD=YEAR: 2000
EXTT0=
EXTT1=
EXTT2=
EXTT3=
EXTT4=
EXTT5=
EXTT6=
EXTT7=
PLAYORDER=
